<svg width="67" height="68" viewBox="0 0 67 68" fill="none" xmlns="http://www.w3.org/2000/svg">
<g filter="url(#filter0_d)">
<rect x="20" y="12.5" width="23" height="23" rx="5" fill="#EB0E38"/>
<rect x="21" y="13.5" width="21" height="21" rx="4" stroke="#EB0E38" stroke-width="2"/>
</g>
<g clip-path="url(#clip0)">
<path d="M37.7023 19.509C37.3779 19.509 37.0785 19.6515 36.8539 19.8653C34.4332 22.1693 32.2371 24.4496 29.8913 26.7061L27.0214 24.5209C26.4724 24.1171 25.6988 24.1883 25.2745 24.7109C24.8503 25.2334 24.9252 25.9698 25.4742 26.3736L29.2175 29.2239C29.7166 29.604 30.4403 29.5565 30.8895 29.1289C33.5847 26.5636 35.9804 24.0458 38.6257 21.528C39.1248 21.0767 39.1248 20.3166 38.6507 19.8415C38.4011 19.6277 38.0517 19.4852 37.7023 19.509Z" fill="#F8F8F8"/>
</g>
<defs>
<filter id="filter0_d" x="0" y="0.5" width="67" height="67" filterUnits="userSpaceOnUse" color-interpolation-filters="sRGB">
<feFlood flood-opacity="0" result="BackgroundImageFix"/>
<feColorMatrix in="SourceAlpha" type="matrix" values="0 0 0 0 0 0 0 0 0 0 0 0 0 0 0 0 0 0 127 0"/>
<feOffset dx="2" dy="10"/>
<feGaussianBlur stdDeviation="11"/>
<feColorMatrix type="matrix" values="0 0 0 0 0.8625 0 0 0 0 0.118594 0 0 0 0 0.118594 0 0 0 0.36 0"/>
<feBlend mode="normal" in2="BackgroundImageFix" result="effect1_dropShadow"/>
<feBlend mode="normal" in="SourceGraphic" in2="effect1_dropShadow" result="shape"/>
</filter>
<clipPath id="clip0">
<rect width="14" height="10" fill="white" transform="translate(25 19.5)"/>
</clipPath>
</defs>
</svg>
